<svg height="512pt" viewBox="0 0 512 512.00013" width="512pt" xmlns="http://www.w3.org/2000/svg"><path d="m280 112.5c0 13.253906-10.746094 24-24 24s-24-10.746094-24-24 10.746094-24 24-24 24 10.746094 24 24zm0 0" fill="#507d94"/><path d="m474.5 472.5h-437c-16.570312 0-30-13.429688-30-30v-300c0-16.570312 13.429688-30 30-30h437c16.570312 0 30 13.429688 30 30v300c0 16.570312-13.429688 30-30 30zm0 0" fill="#5788a1"/><path d="m474.5 112.5h-30c16.570312 0 30 13.429688 30 30v300c0 16.570312-13.429688 30-30 30h30c16.570312 0 30-13.429688 30-30v-300c0-16.566406-13.429688-30-30-30zm0 0" fill="#507d94"/><path d="m463.292969 175.585938c0 9.191406-7.453125 16.640624-16.644531 16.640624-9.191407 0-16.640626-7.449218-16.640626-16.640624 0-9.191407 7.449219-16.640626 16.640626-16.640626 9.191406 0 16.644531 7.449219 16.644531 16.640626zm0 0" fill="#ff4b22"/><g fill="#e6e6e6"><path d="m463.292969 244.511719c0 9.191406-7.453125 16.640625-16.644531 16.640625-9.191407 0-16.640626-7.449219-16.640626-16.640625 0-9.191407 7.449219-16.640625 16.640626-16.640625 9.191406 0 16.644531 7.449218 16.644531 16.640625zm0 0"/><path d="m465.730469 434.777344h-36.460938c-4.84375 0-8.769531-3.925782-8.769531-8.765625v-121.8125c0-4.84375 3.925781-8.769531 8.769531-8.769531h36.460938c4.84375 0 8.769531 3.925781 8.769531 8.769531v121.8125c0 4.84375-3.925781 8.765625-8.769531 8.765625zm0 0"/><path d="m460 504.5h-408c-4.417969 0-8-3.582031-8-8v-24h424v24c0 4.417969-3.582031 8-8 8zm0 0"/></g><path d="m438 472.5v24c0 4.417969-3.582031 8-8 8h30c4.417969 0 8-3.582031 8-8v-24zm0 0" fill="#ccc"/><path d="m389.5 172.5v240c0 16.570312-13.429688 30-30 30h-292c-16.570312 0-30-13.429688-30-30v-240c0-16.570312 13.429688-30 30-30h292c16.570312 0 30 13.429688 30 30zm0 0" fill="#80d8ff"/><path d="m359.5 142.5h-30c16.570312 0 30 13.429688 30 30v240c0 16.570312-13.429688 30-30 30h30c16.570312 0 30-13.429688 30-30v-240c0-16.570312-13.429688-30-30-30zm0 0" fill="#40c4ff"/><path d="m504.5 280.371094c-4.140625 0-7.5 3.359375-7.5 7.5v154.628906c0 12.40625-10.09375 22.5-22.5 22.5h-437c-12.40625 0-22.5-10.09375-22.5-22.5v-250.628906c0-4.140625-3.359375-7.5-7.5-7.5s-7.5 3.359375-7.5 7.5v250.628906c0 20.34375 16.28125 36.957031 36.5 37.488281v16.511719c0 8.546875 6.953125 15.5 15.5 15.5h408c8.546875 0 15.5-6.953125 15.5-15.5v-16.511719c20.21875-.53125 36.5-17.144531 36.5-37.488281v-154.628906c0-4.140625-3.359375-7.5-7.5-7.5zm-44 216.128906c0 .277344-.222656.5-.5.5h-408c-.277344 0-.5-.222656-.5-.5v-16.5h409zm0 0"/><path d="m474.5 105h-187.902344c-1-4.074219-2.792968-7.839844-5.207031-11.121094l68.359375-81.5625c2.660156-3.171875 2.242188-7.902344-.933594-10.5625-3.175781-2.664062-7.90625-2.246094-10.5625.929688l-68.355468 81.554687c-4.195313-2.074219-8.914063-3.238281-13.898438-3.238281s-9.703125 1.164062-13.898438 3.234375l-68.351562-81.550781c-2.664062-3.175782-7.394531-3.59375-10.566406-.929688-3.175782 2.660156-3.589844 7.390625-.929688 10.5625l68.355469 81.5625c-2.414063 3.28125-4.207031 7.046875-5.207031 11.121094h-187.902344c-20.679688 0-37.5 16.824219-37.5 37.5v17c0 4.140625 3.359375 7.5 7.5 7.5s7.5-3.359375 7.5-7.5v-17c0-12.40625 10.09375-22.5 22.5-22.5h437c12.40625 0 22.5 10.09375 22.5 22.5v113.5c0 4.140625 3.359375 7.5 7.5 7.5s7.5-3.359375 7.5-7.5v-113.5c0-20.675781-16.820312-37.5-37.5-37.5zm-218.5-9c6.398438 0 11.960938 3.664062 14.695312 9h-29.390624c2.738281-5.335938 8.296874-9 14.695312-9zm0 0"/><path d="m446.648438 199.726562c13.3125 0 24.144531-10.828124 24.144531-24.140624s-10.832031-24.144532-24.144531-24.144532c-13.308594 0-24.140626 10.832032-24.140626 24.144532s10.832032 24.140624 24.140626 24.140624zm0-33.28125c5.042968 0 9.144531 4.101563 9.144531 9.140626 0 5.042968-4.101563 9.140624-9.144531 9.140624-5.039063 0-9.140626-4.097656-9.140626-9.140624 0-5.039063 4.101563-9.140626 9.140626-9.140626zm0 0"/><path d="m446.648438 268.652344c13.3125 0 24.144531-10.828125 24.144531-24.140625s-10.832031-24.140625-24.144531-24.140625c-13.308594 0-24.140626 10.828125-24.140626 24.140625s10.832032 24.140625 24.140626 24.140625zm0-33.28125c5.042968 0 9.144531 4.101562 9.144531 9.140625 0 5.042969-4.101563 9.140625-9.144531 9.140625-5.039063 0-9.140626-4.097656-9.140626-9.140625 0-5.039063 4.101563-9.140625 9.140626-9.140625zm0 0"/><path d="m413 304.199219v121.8125c0 8.96875 7.296875 16.269531 16.269531 16.269531h36.460938c8.972656 0 16.269531-7.300781 16.269531-16.269531v-121.8125c0-8.972657-7.296875-16.269531-16.269531-16.269531h-36.460938c-8.972656 0-16.269531 7.296874-16.269531 16.269531zm27 66.636719h-12v-11.667969h12zm15-11.667969h12v11.667969h-12zm-27 26.667969h12v11.664062h-12zm27 0h12v11.664062h-12zm12-41.667969h-12v-11.667969h12zm-27 0h-12v-11.667969h12zm-12 81.84375v-13.511719h12v14.777344h-10.730469c-.699219.003906-1.269531-.566406-1.269531-1.265625zm37.730469 1.269531h-10.730469v-14.78125h12v13.511719c0 .699219-.570312 1.269531-1.269531 1.269531zm1.269531-123.082031v13.300781h-12v-14.570312h10.730469c.699219 0 1.269531.570312 1.269531 1.269531zm-37.730469-1.269531h10.730469v14.570312h-12v-13.304688c0-.695312.570312-1.265624 1.269531-1.265624zm0 0"/><path d="m359.5 435h-40.003906c-4.140625 0-7.5 3.359375-7.5 7.5s3.359375 7.5 7.5 7.5h40.003906c20.679688 0 37.5-16.820312 37.5-37.5v-240c0-20.679688-16.820312-37.5-37.5-37.5h-292c-20.679688 0-37.5 16.824219-37.5 37.5v240c0 20.679688 16.820312 37.5 37.5 37.5h217.5c4.140625 0 7.5-3.359375 7.5-7.5s-3.359375-7.5-7.5-7.5h-217.5c-12.40625 0-22.5-10.09375-22.5-22.5v-240c0-12.40625 10.09375-22.5 22.5-22.5h292c12.40625 0 22.5 10.09375 22.5 22.5v240c0 12.40625-10.09375 22.5-22.5 22.5zm0 0"/></svg>